<svg width="64" height="64" viewBox="0 0 64 64" fill="none" xmlns="http://www.w3.org/2000/svg">
  <rect width="64" height="64" rx="14" fill="#4FC3F7"/>
  <path d="M32 12C28.6863 12 26 14.6863 26 18V30C26 33.3137 28.6863 36 32 36C35.3137 36 38 33.3137 38 30V18C38 14.6863 35.3137 12 32 12Z" fill="white"/>
  <path d="M22 28V30C22 36.6274 27.3726 42 34 42V44H30C29.4477 44 29 44.4477 29 45C29 45.5523 29.4477 46 30 46H34H34H38C38.5523 46 39 45.5523 39 45C39 44.4477 38.5523 44 38 44H34V42C40.6274 42 46 36.6274 46 30V28C46 27.4477 45.5523 27 45 27C44.4477 27 44 27.4477 44 28V30C44 35.5228 39.5228 40 34 40C28.4772 40 24 35.5228 24 30V28C24 27.4477 23.5523 27 23 27C22.4477 27 22 27.4477 22 28Z" fill="white"/>
  <ellipse cx="30" cy="20" rx="1" ry="2" fill="#4FC3F7"/>
  <ellipse cx="34" cy="20" rx="1" ry="2" fill="#4FC3F7"/>
  <ellipse cx="30" cy="25" rx="1" ry="1.5" fill="#4FC3F7"/>
  <ellipse cx="34" cy="25" rx="1" ry="1.5" fill="#4FC3F7"/>
  <ellipse cx="32" cy="29" rx="1.5" ry="1" fill="#4FC3F7"/>
</svg>
